<?xml version="1.0" encoding="UTF-8"?>
<!DOCTYPE svg PUBLIC "-//W3C//DTD SVG 1.1//EN" "http://www.w3.org/Graphics/SVG/1.1/DTD/svg11.dtd">
<!-- Creator: CorelDRAW 2020 (64-Bit) -->
<svg xmlns="http://www.w3.org/2000/svg" xml:space="preserve" width="68mm" height="24mm" version="1.1" style="shape-rendering:geometricPrecision; text-rendering:geometricPrecision; image-rendering:optimizeQuality; fill-rule:evenodd; clip-rule:evenodd"
viewBox="0 0 29700 21000"
 xmlns:xlink="http://www.w3.org/1999/xlink"
 xmlns:xodm="http://www.corel.com/coreldraw/odm/2003">
 <defs>
  <style type="text/css">
   <![CDATA[
    .fil1 {fill:#FCD4D2;fill-rule:nonzero}
    .fil0 {fill:#FF3324;fill-rule:nonzero}
   ]]>
  </style>
 </defs>
 <g id="Слой_x0020_1">
  <metadata id="CorelCorpID_0Corel-Layer"/>
  <g id="_2665368983408">
   <g>
    <g>
     <rect class="fil0" x="15395.78" y="6958.36" width="1345.35" height="6725.48"/>
     <rect class="fil0" x="17653.33" y="6958.36" width="1345.35" height="6725.48"/>
     <path class="fil0" d="M22793.94 11752.7c0,537.39 -354.95,855.11 -778.16,855.11l-76.95 0c-423.21,0 -778.16,-316.48 -778.16,-855.11l0 -2873.13 -1345.35 0 0 2814.81c0,1392.51 903.51,2161.98 2036.63,2161.98l249.46 0c1133.12,0 2036.63,-768.24 2036.63,-2161.98l0 -2814.81 -1345.34 0 0 2873.13 1.24 0z"/>
     <path class="fil0" d="M27088.13 8707.06l-153.9 0c-1133.12,0 -2085.04,749.63 -2085.04,2161.98l0 2814.81 1345.35 -0.01 0 -2804.88c0,-624.27 393.43,-912.21 816.64,-912.21l38.47 0.01c413.29,0 796.79,269.32 826.57,932.07l9.93 192.37 1335.42 -57.09 0 -115.42c-1.25,-1347.83 -951.92,-2211.63 -2133.44,-2211.63z"/>
     <path class="fil0" d="M11899.62 8754.22c-1464.49,0 -2632.35,1090.93 -2632.35,2536.8 0,1454.57 1129.39,2507.02 2507.01,2507.02 711.15,0 1258.47,-214.72 1628.32,-572.15l18.62 457.96 1110.77 -0.01 0 -2402.76 0 0c-6.21,-1439.67 -1180.29,-2526.86 -2632.37,-2526.86zm9.93 3838.7c-727.28,0 -1291.97,-554.77 -1291.97,-1301.9 0,-747.13 564.69,-1301.91 1291.97,-1301.91 765.75,0 1340.38,546.08 1340.38,1301.9 -1.24,775.69 -574.62,1301.91 -1340.38,1301.91z"/>
    </g>
   </g>
   <path class="fil1" d="M2735.05 9348.64c4.37,38.95 8.79,78.3 11.81,114.63l5.09 61.2 -1162.71 -109.34 -7.51 -37.52c-9.21,-46.05 -16.19,-98.81 -20.9,-153.85 -4.92,-57.37 -7.39,-117.16 -7.39,-174.27 0,-593.58 231.74,-1154.35 663.2,-1554.62 393.3,-364.86 951.81,-595.87 1650.87,-595.87 682.36,0 1230.53,217.65 1616.22,566.82 417.16,377.67 643.36,908.31 643.36,1483.77 0,420.32 -114.28,801.29 -319.34,1136.41 -216.16,353.26 -532.92,654.85 -922.64,897.21l-1262.94 799.56c-164.77,102.41 -315.84,213.38 -436.06,341.33 -102.81,109.41 -183.38,231.56 -230.93,371.93l3208.23 0 0 1084.54 -4674.2 0 0.88 -52.43c9.19,-549.16 115.59,-1034.2 360.79,-1471.36 244.88,-436.61 627.51,-824.23 1189.25,-1178.85l1063.69 -681.89c284.24,-177.66 490.23,-370.03 624.6,-576 132.83,-203.56 195.99,-421.38 195.99,-652.28 0,-280.82 -99.66,-548.88 -301.54,-737.82 -178.72,-167.29 -438.84,-273.65 -782.61,-273.65 -363.94,0 -634.63,118.6 -817.98,313.32 -204.17,216.83 -302.48,529.68 -302.48,879.85 0,63.24 7.57,130.57 15.25,199.18zm7872.97 -875.05c-156.11,-180.11 -279.37,-265.65 -495.82,-369.33 -176.12,-84.38 -374.05,-138.85 -579.11,-138.85 -223.61,0 -409.32,43.52 -567.09,119.68 -157.86,76.2 -288.84,185.45 -402.55,316.66l-0.41 0.41c-166.88,188.82 -288.05,445.15 -367.84,763.24 -80.68,321.57 -118.78,705.89 -118.78,1147.1 0,638.76 33.35,1065.34 300.35,1658.86 83.74,206.64 282.56,564.87 639.48,728.94 33.75,96.28 450.39,775.62 869.3,1013.33 -485.06,0 -1089.69,-35.52 -1530.55,-264.91 -358.37,-186.49 -645.77,-461.78 -872.68,-799.71 -217.26,-323.61 -362.79,-690.57 -453.84,-1085.92 -90.73,-393.88 -127.5,-815.66 -127.5,-1250.59 0,-434.72 34.47,-858.66 124.07,-1254.96 89.99,-397.99 235.54,-767.44 457.47,-1091.02 222.67,-333.82 511.1,-609.74 871.83,-797.45 330.97,-172.24 722.25,-270.07 1178.74,-270.07 482.48,0 897.85,130.47 1258.73,352.88 409.37,252.25 738.98,592.46 992.04,999.22 -421.19,-22.01 -746.4,14.05 -1175.84,222.49z"/>
  </g>
 </g>
</svg>
